<mxfile host="Electron" agent="Mozilla/5.0 (Macintosh; Intel Mac OS X 10_15_7) AppleWebKit/537.36 (KHTML, like Gecko) draw.io/26.0.15 Chrome/132.0.6834.196 Electron/34.2.0 Safari/537.36" version="26.0.15">
  <diagram id="r1iUKL4bBiqn2qNLH1qr" name="Page-1">
    <mxGraphModel dx="1104" dy="701" grid="1" gridSize="10" guides="1" tooltips="1" connect="1" arrows="1" fold="1" page="1" pageScale="1" pageWidth="1169" pageHeight="827" math="0" shadow="0">
      <root>
        <mxCell id="0" />
        <mxCell id="1" parent="0" />
        <mxCell id="5w5cV7cTKROfgp2IEPv9-13" value="" style="rounded=0;whiteSpace=wrap;html=1;sketch=0;strokeColor=none;fillColor=none;" parent="1" vertex="1">
          <mxGeometry x="497.5" y="210" width="85" height="90" as="geometry" />
        </mxCell>
        <mxCell id="5w5cV7cTKROfgp2IEPv9-8" value="" style="rounded=0;whiteSpace=wrap;html=1;sketch=0;strokeColor=none;fillColor=none;" parent="1" vertex="1">
          <mxGeometry x="415" y="210" width="85" height="90" as="geometry" />
        </mxCell>
        <mxCell id="ENIyIZpq6v77daXCse3p-1" value="" style="verticalLabelPosition=bottom;html=1;verticalAlign=top;strokeWidth=1;align=center;outlineConnect=0;dashed=0;outlineConnect=0;shape=mxgraph.aws3d.file;aspect=fixed;strokeColor=#292929;sketch=1;curveFitting=1;jiggle=2;" parent="1" vertex="1">
          <mxGeometry x="84.1" y="70" width="21.81" height="50" as="geometry" />
        </mxCell>
        <mxCell id="ENIyIZpq6v77daXCse3p-2" value="" style="verticalLabelPosition=bottom;html=1;verticalAlign=top;strokeWidth=1;align=center;outlineConnect=0;dashed=0;outlineConnect=0;shape=mxgraph.aws3d.file;aspect=fixed;strokeColor=#292929;sketch=1;curveFitting=1;jiggle=2;" parent="1" vertex="1">
          <mxGeometry x="74.1" y="80" width="21.81" height="50" as="geometry" />
        </mxCell>
        <mxCell id="ENIyIZpq6v77daXCse3p-3" value="" style="verticalLabelPosition=bottom;html=1;verticalAlign=top;strokeWidth=1;align=center;outlineConnect=0;dashed=0;outlineConnect=0;shape=mxgraph.aws3d.file;aspect=fixed;strokeColor=#292929;sketch=1;curveFitting=1;jiggle=2;" parent="1" vertex="1">
          <mxGeometry x="62.28999999999999" y="90" width="21.81" height="50" as="geometry" />
        </mxCell>
        <mxCell id="ENIyIZpq6v77daXCse3p-4" value="Data files" style="text;html=1;strokeColor=none;fillColor=none;align=center;verticalAlign=middle;whiteSpace=wrap;rounded=0;sketch=1;curveFitting=1;jiggle=2;" parent="1" vertex="1">
          <mxGeometry x="55" y="140" width="60" height="30" as="geometry" />
        </mxCell>
        <mxCell id="PXZRSTd17emb5GcIjlXb-6" value="Cloud storage" style="text;html=1;strokeColor=none;fillColor=none;align=center;verticalAlign=middle;whiteSpace=wrap;rounded=0;sketch=1;curveFitting=1;jiggle=2;" parent="1" vertex="1">
          <mxGeometry x="235" y="140" width="60" height="30" as="geometry" />
        </mxCell>
        <mxCell id="PXZRSTd17emb5GcIjlXb-9" style="edgeStyle=orthogonalEdgeStyle;rounded=0;orthogonalLoop=1;jettySize=auto;html=1;entryX=0;entryY=0.5;entryDx=0;entryDy=0;sketch=1;curveFitting=1;jiggle=2;" parent="1" source="PXZRSTd17emb5GcIjlXb-7" target="PXZRSTd17emb5GcIjlXb-8" edge="1">
          <mxGeometry relative="1" as="geometry" />
        </mxCell>
        <mxCell id="PXZRSTd17emb5GcIjlXb-17" value="FIles uploaded to &lt;br&gt;cloud storage" style="edgeLabel;html=1;align=center;verticalAlign=middle;resizable=0;points=[];" parent="PXZRSTd17emb5GcIjlXb-9" vertex="1" connectable="0">
          <mxGeometry x="0.0256" y="5" relative="1" as="geometry">
            <mxPoint y="-20" as="offset" />
          </mxGeometry>
        </mxCell>
        <mxCell id="PXZRSTd17emb5GcIjlXb-7" value="" style="rounded=0;whiteSpace=wrap;html=1;sketch=0;strokeColor=none;fillColor=none;" parent="1" vertex="1">
          <mxGeometry x="40" y="60" width="85" height="90" as="geometry" />
        </mxCell>
        <mxCell id="PXZRSTd17emb5GcIjlXb-13" value="" style="group" parent="1" vertex="1" connectable="0">
          <mxGeometry x="415" y="60" width="85" height="90" as="geometry" />
        </mxCell>
        <mxCell id="PXZRSTd17emb5GcIjlXb-10" value="fn" style="shape=mxgraph.electrical.abstract.function;html=1;shadow=0;dashed=0;align=center;strokeWidth=1;fontSize=24;sketch=1;strokeColor=default;fillColor=none;curveFitting=1;jiggle=2;" parent="PXZRSTd17emb5GcIjlXb-13" vertex="1">
          <mxGeometry x="20" y="20" width="50" height="50" as="geometry" />
        </mxCell>
        <mxCell id="PXZRSTd17emb5GcIjlXb-12" value="" style="rounded=0;whiteSpace=wrap;html=1;sketch=0;strokeColor=none;fillColor=none;" parent="PXZRSTd17emb5GcIjlXb-13" vertex="1">
          <mxGeometry width="85" height="90" as="geometry" />
        </mxCell>
        <mxCell id="PXZRSTd17emb5GcIjlXb-14" value="" style="group" parent="1" vertex="1" connectable="0">
          <mxGeometry x="222.5" y="60" width="85" height="90" as="geometry" />
        </mxCell>
        <mxCell id="PXZRSTd17emb5GcIjlXb-4" value="" style="strokeWidth=2;html=1;shape=mxgraph.flowchart.database;whiteSpace=wrap;sketch=1;strokeColor=default;fillColor=default;curveFitting=1;jiggle=2;" parent="PXZRSTd17emb5GcIjlXb-14" vertex="1">
          <mxGeometry x="12.5" y="10" width="60" height="60" as="geometry" />
        </mxCell>
        <mxCell id="PXZRSTd17emb5GcIjlXb-8" value="" style="rounded=0;whiteSpace=wrap;html=1;sketch=0;strokeColor=none;fillColor=none;" parent="PXZRSTd17emb5GcIjlXb-14" vertex="1">
          <mxGeometry width="85" height="90" as="geometry" />
        </mxCell>
        <mxCell id="PXZRSTd17emb5GcIjlXb-15" style="edgeStyle=orthogonalEdgeStyle;rounded=0;sketch=1;orthogonalLoop=1;jettySize=auto;html=1;entryX=0;entryY=0.5;entryDx=0;entryDy=0;" parent="1" source="PXZRSTd17emb5GcIjlXb-8" target="PXZRSTd17emb5GcIjlXb-12" edge="1">
          <mxGeometry relative="1" as="geometry" />
        </mxCell>
        <mxCell id="PXZRSTd17emb5GcIjlXb-18" value="File events sent&lt;br&gt;&amp;nbsp;to cloud function" style="edgeLabel;html=1;align=center;verticalAlign=middle;resizable=0;points=[];" parent="PXZRSTd17emb5GcIjlXb-15" vertex="1" connectable="0">
          <mxGeometry x="0.04" y="4" relative="1" as="geometry">
            <mxPoint y="-21" as="offset" />
          </mxGeometry>
        </mxCell>
        <mxCell id="PXZRSTd17emb5GcIjlXb-24" style="edgeStyle=orthogonalEdgeStyle;rounded=0;sketch=1;orthogonalLoop=1;jettySize=auto;html=1;entryX=0.5;entryY=0;entryDx=0;entryDy=0;" parent="1" source="PXZRSTd17emb5GcIjlXb-12" target="5w5cV7cTKROfgp2IEPv9-8" edge="1">
          <mxGeometry relative="1" as="geometry" />
        </mxCell>
        <mxCell id="PXZRSTd17emb5GcIjlXb-25" value="File events saved&lt;br&gt;to queue" style="edgeLabel;html=1;align=center;verticalAlign=middle;resizable=0;points=[];" parent="PXZRSTd17emb5GcIjlXb-24" vertex="1" connectable="0">
          <mxGeometry x="-0.325" relative="1" as="geometry">
            <mxPoint as="offset" />
          </mxGeometry>
        </mxCell>
        <mxCell id="PXZRSTd17emb5GcIjlXb-16" value="" style="html=1;verticalLabelPosition=bottom;align=center;labelBackgroundColor=#ffffff;verticalAlign=top;strokeWidth=2;strokeColor=#0080F0;shadow=0;dashed=0;shape=mxgraph.ios7.icons.folder;sketch=1;fillColor=none;" parent="1" vertex="1">
          <mxGeometry x="437.5" y="230" width="40" height="30" as="geometry" />
        </mxCell>
        <mxCell id="PXZRSTd17emb5GcIjlXb-22" value="" style="rounded=0;whiteSpace=wrap;html=1;sketch=0;strokeColor=none;fillColor=none;" parent="1" vertex="1">
          <mxGeometry x="415" y="200" width="85" height="90" as="geometry" />
        </mxCell>
        <mxCell id="PXZRSTd17emb5GcIjlXb-26" value="" style="rounded=0;whiteSpace=wrap;html=1;sketch=1;strokeColor=default;fillColor=none;" parent="1" vertex="1">
          <mxGeometry x="145" y="200" width="550" height="110" as="geometry" />
        </mxCell>
        <mxCell id="PXZRSTd17emb5GcIjlXb-27" value="/queued" style="text;html=1;strokeColor=none;fillColor=none;align=center;verticalAlign=middle;whiteSpace=wrap;rounded=0;" parent="1" vertex="1">
          <mxGeometry x="427.5" y="260" width="60" height="30" as="geometry" />
        </mxCell>
        <mxCell id="y5HOinTin2TDhCj2u4yX-1" value="" style="html=1;verticalLabelPosition=bottom;align=center;labelBackgroundColor=#ffffff;verticalAlign=top;strokeWidth=2;strokeColor=#0080F0;shadow=0;dashed=0;shape=mxgraph.ios7.icons.folder;sketch=1;fillColor=none;" parent="1" vertex="1">
          <mxGeometry x="520" y="230" width="40" height="30" as="geometry" />
        </mxCell>
        <mxCell id="y5HOinTin2TDhCj2u4yX-2" value="/processed" style="text;html=1;strokeColor=none;fillColor=none;align=center;verticalAlign=middle;whiteSpace=wrap;rounded=0;" parent="1" vertex="1">
          <mxGeometry x="510" y="260" width="60" height="30" as="geometry" />
        </mxCell>
        <mxCell id="tidZk-J65ini3ylnhXwo-1" value="" style="html=1;verticalLabelPosition=bottom;align=center;labelBackgroundColor=#ffffff;verticalAlign=top;strokeWidth=2;strokeColor=#0080F0;shadow=0;dashed=0;shape=mxgraph.ios7.icons.folder;sketch=1;fillColor=none;" parent="1" vertex="1">
          <mxGeometry x="355" y="230" width="40" height="30" as="geometry" />
        </mxCell>
        <mxCell id="tidZk-J65ini3ylnhXwo-2" value="/status" style="text;html=1;strokeColor=none;fillColor=none;align=center;verticalAlign=middle;whiteSpace=wrap;rounded=0;" parent="1" vertex="1">
          <mxGeometry x="345" y="260" width="60" height="30" as="geometry" />
        </mxCell>
        <mxCell id="AItXRLXdYvDyVJweitW2-1" value="" style="html=1;verticalLabelPosition=bottom;align=center;labelBackgroundColor=#ffffff;verticalAlign=top;strokeWidth=2;strokeColor=#0080F0;shadow=0;dashed=0;shape=mxgraph.ios7.icons.folder;sketch=1;fillColor=none;" parent="1" vertex="1">
          <mxGeometry x="605" y="230" width="40" height="30" as="geometry" />
        </mxCell>
        <mxCell id="AItXRLXdYvDyVJweitW2-2" value="/error" style="text;html=1;strokeColor=none;fillColor=none;align=center;verticalAlign=middle;whiteSpace=wrap;rounded=0;" parent="1" vertex="1">
          <mxGeometry x="595" y="260" width="60" height="30" as="geometry" />
        </mxCell>
        <mxCell id="AItXRLXdYvDyVJweitW2-3" value="" style="html=1;verticalLabelPosition=bottom;align=center;labelBackgroundColor=#ffffff;verticalAlign=top;strokeWidth=2;strokeColor=#0080F0;shadow=0;dashed=0;shape=mxgraph.ios7.icons.folder;sketch=1;fillColor=none;" parent="1" vertex="1">
          <mxGeometry x="275" y="230" width="40" height="30" as="geometry" />
        </mxCell>
        <mxCell id="AItXRLXdYvDyVJweitW2-4" value="/data-sources" style="text;html=1;strokeColor=none;fillColor=none;align=center;verticalAlign=middle;whiteSpace=wrap;rounded=0;" parent="1" vertex="1">
          <mxGeometry x="255" y="260" width="80" height="30" as="geometry" />
        </mxCell>
        <mxCell id="oEeMt844efe0KbxkMqYV-4" value="" style="group" parent="1" vertex="1" connectable="0">
          <mxGeometry x="415" y="340" width="100" height="104" as="geometry" />
        </mxCell>
        <mxCell id="oEeMt844efe0KbxkMqYV-5" value="fn" style="shape=mxgraph.electrical.abstract.function;html=1;shadow=0;dashed=0;align=center;strokeWidth=1;fontSize=24;sketch=1;strokeColor=default;fillColor=none;curveFitting=1;jiggle=2;" parent="oEeMt844efe0KbxkMqYV-4" vertex="1">
          <mxGeometry x="20" y="20" width="50" height="50" as="geometry" />
        </mxCell>
        <mxCell id="oEeMt844efe0KbxkMqYV-6" value="" style="rounded=0;whiteSpace=wrap;html=1;sketch=0;strokeColor=none;fillColor=none;" parent="oEeMt844efe0KbxkMqYV-4" vertex="1">
          <mxGeometry width="85" height="90" as="geometry" />
        </mxCell>
        <mxCell id="IIrdh7EeZ58ldLNOWqoB-2" value="Notifier&lt;br&gt;function" style="text;html=1;strokeColor=none;fillColor=none;align=center;verticalAlign=middle;whiteSpace=wrap;rounded=0;" parent="oEeMt844efe0KbxkMqYV-4" vertex="1">
          <mxGeometry x="1.25" y="74" width="87.5" height="30" as="geometry" />
        </mxCell>
        <mxCell id="5w5cV7cTKROfgp2IEPv9-7" style="rounded=0;sketch=1;orthogonalLoop=1;jettySize=auto;html=1;entryX=0;entryY=0.75;entryDx=0;entryDy=0;exitX=0.75;exitY=0;exitDx=0;exitDy=0;" parent="1" source="5w5cV7cTKROfgp2IEPv9-6" target="PXZRSTd17emb5GcIjlXb-12" edge="1">
          <mxGeometry relative="1" as="geometry" />
        </mxCell>
        <mxCell id="5w5cV7cTKROfgp2IEPv9-9" value="Config read" style="edgeLabel;html=1;align=center;verticalAlign=middle;resizable=0;points=[];" parent="5w5cV7cTKROfgp2IEPv9-7" vertex="1" connectable="0">
          <mxGeometry x="-0.0345" y="4" relative="1" as="geometry">
            <mxPoint as="offset" />
          </mxGeometry>
        </mxCell>
        <mxCell id="IIrdh7EeZ58ldLNOWqoB-1" style="rounded=0;orthogonalLoop=1;jettySize=auto;html=1;entryX=0;entryY=0.25;entryDx=0;entryDy=0;sketch=1;curveFitting=1;jiggle=2;exitX=0.75;exitY=1;exitDx=0;exitDy=0;" parent="1" source="5w5cV7cTKROfgp2IEPv9-6" target="oEeMt844efe0KbxkMqYV-6" edge="1">
          <mxGeometry relative="1" as="geometry" />
        </mxCell>
        <mxCell id="5w5cV7cTKROfgp2IEPv9-6" value="" style="rounded=0;whiteSpace=wrap;html=1;sketch=0;strokeColor=none;fillColor=none;" parent="1" vertex="1">
          <mxGeometry x="252.5" y="210" width="85" height="90" as="geometry" />
        </mxCell>
        <mxCell id="5w5cV7cTKROfgp2IEPv9-11" style="edgeStyle=none;rounded=0;sketch=1;orthogonalLoop=1;jettySize=auto;html=1;" parent="1" source="5w5cV7cTKROfgp2IEPv9-8" target="oEeMt844efe0KbxkMqYV-6" edge="1">
          <mxGeometry relative="1" as="geometry" />
        </mxCell>
        <mxCell id="5w5cV7cTKROfgp2IEPv9-10" value="Notifier&lt;br&gt;cloud storage" style="text;html=1;strokeColor=none;fillColor=none;align=center;verticalAlign=middle;whiteSpace=wrap;rounded=0;sketch=1;curveFitting=1;jiggle=2;" parent="1" vertex="1">
          <mxGeometry x="155" y="240" width="80" height="30" as="geometry" />
        </mxCell>
        <mxCell id="5w5cV7cTKROfgp2IEPv9-14" style="edgeStyle=none;rounded=0;sketch=1;orthogonalLoop=1;jettySize=auto;html=1;entryX=0.25;entryY=1;entryDx=0;entryDy=0;strokeColor=#009900;" parent="1" source="oEeMt844efe0KbxkMqYV-6" target="5w5cV7cTKROfgp2IEPv9-13" edge="1">
          <mxGeometry relative="1" as="geometry" />
        </mxCell>
        <mxCell id="5w5cV7cTKROfgp2IEPv9-15" style="edgeStyle=none;rounded=0;sketch=1;orthogonalLoop=1;jettySize=auto;html=1;entryX=0.25;entryY=1;entryDx=0;entryDy=0;strokeColor=#FF6666;dashed=1;dashPattern=8 8;" parent="1" source="oEeMt844efe0KbxkMqYV-6" target="AItXRLXdYvDyVJweitW2-2" edge="1">
          <mxGeometry relative="1" as="geometry" />
        </mxCell>
        <mxCell id="5w5cV7cTKROfgp2IEPv9-17" value="" style="rounded=0;whiteSpace=wrap;html=1;sketch=0;strokeColor=none;fillColor=none;" parent="1" vertex="1">
          <mxGeometry x="332.5" y="210" width="85" height="90" as="geometry" />
        </mxCell>
        <mxCell id="5w5cV7cTKROfgp2IEPv9-18" style="edgeStyle=none;rounded=0;sketch=1;orthogonalLoop=1;jettySize=auto;html=1;entryX=0.75;entryY=1;entryDx=0;entryDy=0;strokeColor=#000000;" parent="1" source="oEeMt844efe0KbxkMqYV-6" target="5w5cV7cTKROfgp2IEPv9-17" edge="1">
          <mxGeometry relative="1" as="geometry" />
        </mxCell>
        <mxCell id="5w5cV7cTKROfgp2IEPv9-21" value="" style="html=1;verticalLabelPosition=bottom;align=center;labelBackgroundColor=#ffffff;verticalAlign=top;strokeWidth=2;strokeColor=#0080F0;shadow=0;dashed=0;shape=mxgraph.ios7.icons.alarm_clock;sketch=1;fillColor=none;" parent="1" vertex="1">
          <mxGeometry x="281.5" y="370" width="27" height="30" as="geometry" />
        </mxCell>
        <mxCell id="5w5cV7cTKROfgp2IEPv9-26" style="edgeStyle=none;rounded=0;sketch=1;orthogonalLoop=1;jettySize=auto;html=1;entryX=0;entryY=0.5;entryDx=0;entryDy=0;strokeColor=#000000;" parent="1" source="5w5cV7cTKROfgp2IEPv9-25" target="oEeMt844efe0KbxkMqYV-6" edge="1">
          <mxGeometry relative="1" as="geometry" />
        </mxCell>
        <mxCell id="5w5cV7cTKROfgp2IEPv9-25" value="" style="rounded=0;whiteSpace=wrap;html=1;sketch=0;strokeColor=none;fillColor=none;" parent="1" vertex="1">
          <mxGeometry x="255" y="340" width="85" height="90" as="geometry" />
        </mxCell>
        <mxCell id="civt4th1NjFUIZqUIvjR-1" value="" style="group" parent="1" vertex="1" connectable="0">
          <mxGeometry x="615" y="350" width="179" height="66" as="geometry" />
        </mxCell>
        <mxCell id="civt4th1NjFUIZqUIvjR-2" value="" style="html=1;overflow=block;blockSpacing=1;whiteSpace=wrap;fontSize=16.7;fontColor=#ffffff;spacing=3.8;strokeOpacity=100;fillOpacity=100;rounded=1;absoluteArcSize=1;arcSize=9;fillColor=#333333;strokeWidth=0.8;lucidId=GswLpbe4Q8BF;" parent="civt4th1NjFUIZqUIvjR-1" vertex="1">
          <mxGeometry width="179" height="66" as="geometry" />
        </mxCell>
        <mxCell id="civt4th1NjFUIZqUIvjR-3" value="" style="html=1;overflow=block;blockSpacing=1;whiteSpace=wrap;shape=image;fontSize=13;spacing=0;strokeColor=none;strokeOpacity=100;strokeWidth=0;image=https://images.lucid.app/images/1f929369-ef7f-4cdf-b537-fe316cc4099a/content;imageAspect=0;lucidId=GswL3xc~YGH6;container=1;collapsible=0;" parent="civt4th1NjFUIZqUIvjR-1" vertex="1">
          <mxGeometry x="3" width="173" height="66" as="geometry" />
        </mxCell>
        <mxCell id="civt4th1NjFUIZqUIvjR-4" style="edgeStyle=none;rounded=0;sketch=1;orthogonalLoop=1;jettySize=auto;html=1;entryX=0;entryY=0.5;entryDx=0;entryDy=0;strokeColor=#000000;" parent="1" source="oEeMt844efe0KbxkMqYV-6" target="civt4th1NjFUIZqUIvjR-2" edge="1">
          <mxGeometry relative="1" as="geometry" />
        </mxCell>
        <mxCell id="IIrdh7EeZ58ldLNOWqoB-4" value="API calls" style="edgeLabel;html=1;align=center;verticalAlign=middle;resizable=0;points=[];" parent="civt4th1NjFUIZqUIvjR-4" vertex="1" connectable="0">
          <mxGeometry x="-0.1125" y="2" relative="1" as="geometry">
            <mxPoint x="9" y="-12" as="offset" />
          </mxGeometry>
        </mxCell>
        <mxCell id="IIrdh7EeZ58ldLNOWqoB-3" value="Schedule or trigger" style="text;html=1;strokeColor=none;fillColor=none;align=center;verticalAlign=middle;whiteSpace=wrap;rounded=0;" parent="1" vertex="1">
          <mxGeometry x="265" y="410" width="60" height="30" as="geometry" />
        </mxCell>
      </root>
    </mxGraphModel>
  </diagram>
</mxfile>
